<svg width="500" height="250" xmlns="http://www.w3.org/2000/svg">
 <style type="text/css">.st0{fill:#FFFFFF;stroke:#000000;stroke-miterlimit:10;}
	.st1{fill:#FFFFFF;stroke:#000000;stroke-width:0.5;stroke-miterlimit:10;}
	.st2{font-family:'MyriadPro-Regular';}
	.st3{font-size:12px;}
	.st4{stroke:#000000;stroke-width:0.5;stroke-miterlimit:10;}
	.st5{fill:none;stroke:#000000;stroke-width:0.5;stroke-miterlimit:10;stroke-dasharray:4;}
	.st6{fill:none;stroke:#000000;stroke-width:0.5;stroke-miterlimit:10;}</style>

 <g>
  <title>background</title>
  <rect fill="none" id="canvas_background" height="252" width="502" y="-1" x="-1"/>
 </g>
 <g>
  <title>Layer 1</title>
  <path id="svg_1" d="m132.51,187.38" class="st0"/>
  <line id="svg_2" y2="10.08" x2="460.14" y1="10.08" x1="29.05" class="st1"/>
  <text x="-49" y="-223" id="svg_3" class="st2 st3" transform="matrix(1,0,0,1,53.7298,237.8107) ">W</text>
  <text x="-49" y="-223" id="svg_4" class="st2 st3" transform="matrix(1,0,0,1,283.4593,452.6754) ">Z</text>
  <text x="-49" y="-223" id="svg_5" class="st2 st3" transform="matrix(1,0,0,1,521.9728,237.8107) ">O</text>
  <line id="svg_6" y2="211.43" x2="237.16" y1="10.08" x1="237.16" class="st4"/>
  <line id="svg_7" y2="196.11" x2="314.22" y1="10.08" x1="237.16" class="st5"/>
  <line id="svg_8" y2="196.11" x2="160.11" y1="10.08" x1="237.16" class="st5"/>
  <line id="svg_9" y2="152.46" x2="379.54" y1="10.08" x1="237.16" class="st4"/>
  <line id="svg_10" y2="87.13" x2="423.19" y1="10.08" x1="237.16" class="st5"/>
  <line id="svg_11" y2="152.46" x2="94.79" y1="10.08" x1="237.16" class="st4"/>
  <line id="svg_12" y2="87.13" x2="51.14" y1="10.08" x1="237.16" class="st5"/>
  <text x="-49" y="-223" id="svg_13" class="st2 st3" transform="matrix(1,0,0,1,120.6216,395.2431) ">ZW</text>
  <text x="-49" y="-223" id="svg_14" class="st2 st3" transform="matrix(1,0,0,1,438.1888,395.243) ">ZO</text>
  <path id="svg_15" d="m243.93,10.7c0,3.74 -3.03,6.77 -6.77,6.77c-3.74,0 -6.77,-3.03 -6.77,-6.77" class="st6"/>
 </g>
</svg>